<?xml version="1.0" encoding="utf-8"?>
<!-- Generator: Adobe Illustrator 25.0.0, SVG Export Plug-In . SVG Version: 6.00 Build 0)  -->
<svg version="1.1" id="Layer_1" xmlns="http://www.w3.org/2000/svg" xmlns:xlink="http://www.w3.org/1999/xlink" x="0px" y="0px"
	 viewBox="0 0 1920 1080" style="enable-background:new 0 0 1920 1080;" xml:space="preserve">
<g>
	<path d="M20.6,63c-0.6-0.4-0.9-1-0.8-1.8c0.2-1.1-0.2-1.6-1.2-2c-6.9-3.2-12.4-8-15.9-14.8c-1.5-2.8-2.3-5.8-2.7-8.9
		c-0.1-1.1,0.4-1.7,1.5-1.7c19.2,0,38.4,0,57.7,0c0.3,0,0.6,0,0.9,0.1c0.6,0.2,0.9,0.9,0.8,1.7c-0.8,6.8-4,12.4-9,17.1
		c-3,2.9-6.4,5.1-10.2,6.8c-0.5,0.2-0.7,0.5-0.6,1c0,0.3,0,0.5,0,0.8c0.1,0.7-0.2,1.3-0.8,1.7C33.8,63,27.2,63,20.6,63z M2.9,36.5
		c0,0.1,0,0.2,0,0.3c0.2,1,0.4,2,0.7,2.9c1.7,5.4,5,9.7,9.5,13.1c2.5,1.9,5.2,3.5,8.2,4.7c1.1,0.5,1.3,0.7,1.3,1.9
		c0,0.3,0,0.6,0,0.9c5.4,0,10.7,0,16,0c0-0.3,0-0.6,0-0.8c0-1.4,0.1-1.5,1.4-2c2.6-1.1,5.1-2.4,7.4-4.1c4.8-3.5,8.3-7.9,10.1-13.6
		c0.3-1.1,0.5-2.1,0.8-3.3C39.7,36.5,21.3,36.5,2.9,36.5z"/>
	<path d="M19.6,9.4c0.2-1.3,0.4-2.6,0.7-3.9c0.3-1.5,1.2-2.8,2.4-3.8c0.8-0.6,1.7-0.9,2.5-0.4c0.9,0.5,1.8,1,2.5,1.7
		c1,1,1.9,2.1,2.8,3.2C30.7,6.2,30.9,6,31,5.9c3-2.1,6-4,9.5-5.2c1.5-0.5,3-0.9,4.7-0.6c2.2,0.4,3.5,1.9,3.5,4.2
		c0,1.6-0.5,3.1-1.1,4.6c-0.5,1.2-1.2,2.4-1.8,3.6c0.9,0.3,1.8,0.5,2.6,0.9c0.9,0.4,1.8,0.8,2.7,1.3c2.1,1.3,2.2,3.3,0.3,4.9
		c-0.1,0.1-0.2,0.2-0.4,0.3c0.7,0.7,1.4,1.5,2.1,2.2c0.1,0.1,0.4,0.1,0.5,0c1.9-0.8,3.9,0.5,4.1,2.6c0.2,2.3-0.3,4.3-1.8,6.1
		c-0.2,0.3-0.5,0.5-0.8,0.7c-0.6,0.4-1.4,0.2-1.8-0.3c-0.4-0.6-0.4-1.4,0.2-1.8c1.1-0.9,1.5-2,1.6-3.4c0-0.5,0-1,0-1.6
		c-0.4,0.2-0.9,0.4-1.2,0.6c-0.9,0.6-1.5,0.4-2.2-0.4c-0.7-0.9-1.4-1.7-2.1-2.5c-0.6-0.7-1.5-1-2.3-1.2c-0.5-0.1-1.3,0.1-1.7,0.4
		c-0.8,0.6-1.6,1.3-2.1,2.2c-0.8,1.2-1.3,2.4-1.9,3.7c-0.5,1.3-1.4,1.5-2.5,0.6c-1.1-0.8-2.1-1.7-3.3-2.4c-0.8-0.5-1.7-0.7-2.5-1
		c-0.7-0.2-1.4,0-1.7,0.7c-0.3,0.8-0.5,1.7-0.7,2.6c0,0.1,0.1,0.4,0.2,0.5c0.3,0.7,0.8,1.3,1,2c0.2,0.7-0.2,1.4-0.8,1.6
		c-0.7,0.2-1.5-0.1-1.6-0.8c-0.3-1.1-1-1.4-1.9-1.7c-0.6-0.2-1.3-0.4-1.9-0.8c-1.7-1-2.3-2.4-1.6-4.3c0.3-0.8,0.8-1.6,1.2-2.3
		c0.3-0.5,0.7-0.9,0.9-1.3c0.5-0.8,0.4-1.2-0.4-1.6c-0.8-0.4-1.8-0.7-2.7-1c-0.9-0.3-1.3-0.6-1.3-1.6c0-0.6-0.1-1.2-0.1-1.7
		c-0.3-1.8-1.5-2.7-3.3-2.5c-0.7,0.1-1.4,0.3-2.1,0.5c-0.6,0.2-1.1,0.2-1.7-0.1c-0.8-0.4-1.6-0.8-2.5-1.1c-1.3-0.4-2.2,0.1-2.9,1.3
		c-0.7,1.2-1,2.6-1.1,3.9c-0.1,0.9-0.1,1.9-0.1,2.9c0,0.9-0.3,1.3-1.2,1.5c-0.2,0.1-0.4,0.1-0.6,0.2c-1.5,0.5-1.9,1.1-1.3,2.6
		c0.3,0.8,0.8,1.6,1.3,2.4c0.5,0.8,0.6,1.2,0.1,2c-0.2,0.3-0.3,0.6-0.5,0.9c-0.1,0.1-0.2,0.2-0.4,0.3c0.2,0.3,0.4,0.7,0.7,1
		c0.3,0.4,0.1,0.8-0.4,0.9c-1.9,0.7-2.6-0.4-2.6-2c0-0.4,0.1-0.9,0.3-1.3c0.3-0.6,0.1-1-0.2-1.5c-0.5-1-1-2-1.2-3
		c-0.3-1.9,0.6-3.7,2.4-4.5c0.6-0.3,0.7-0.6,0.8-1.2c0.2-1.6,0.4-3.2,0.9-4.8c1.2-3.8,4.5-5.2,8.1-3.7c0.9,0.4,1.8,0.5,2.7,0.2
		C18,9.5,18.8,9.5,19.6,9.4z M50.2,17.2c-0.3-0.2-0.6-0.4-0.9-0.5c-1.5-0.6-2.9-1.3-4.4-1.9c-0.2-0.1-0.6,0-0.9,0.2
		c-0.5,0.3-0.9,0.4-1.4,0.2c-0.9-0.4-1-1.4-0.4-2.3c1.1-1.7,2.2-3.4,3.1-5.2c0.5-0.9,0.7-2,0.9-3.1c0.2-1.2-0.5-1.9-1.7-2.1
		c-0.3,0-0.7,0-1,0c-1.5,0.1-2.8,0.7-4.1,1.3c-2.9,1.4-5.6,3.3-8.2,5.3c-0.9,0.7-1.7,0.6-2.3-0.4c-0.7-1.1-1.4-2.1-2.1-3.1
		c-0.5-0.6-1-1.2-1.5-1.7c-0.3-0.3-0.6-0.4-0.9,0c-0.4,0.5-0.9,0.9-1.2,1.5c-0.8,1.6-0.8,3.3-0.7,5.1c0,0.1,0.1,0.3,0.2,0.4
		c1.3,1.2,1.8,2.7,2.1,4.4c0,0.2,0.2,0.3,0.4,0.4c0.7,0.3,1.5,0.6,2.2,1c1.5,0.9,2.2,2.5,1.7,4.1c-0.2,0.9-0.8,1.7-1.2,2.5
		c-0.3,0.5-0.7,1-1,1.5c-0.3,0.6-0.2,1.1,0.4,1.5c0.4,0.2,0.8,0.3,1,0.4c0.5-1.2,0.9-2.3,1.5-3.3c0.6-1.1,1.8-1.5,3-1.7
		c-0.8-1.6-1.3-3.2-1.5-4.9c0-0.5-0.2-0.8-0.7-1c-1.5-0.8-2.9-1.5-4.3-2.4c-1-0.6-1-1.8-0.1-2.3c0.5-0.3,1-0.2,1.5,0.1
		c1.3,0.7,2.7,1.5,4,2.2c1.7-2.5,4.5-3.3,6.8-4.9c-0.2-1,0.2-1.7,1-1.8C40.2,6.5,40.9,7,40.9,8c0,0.5,0,1.1-0.2,1.4
		c-0.5,0.7-1.1,1.3-1.7,1.7c-1.2,0.8-2.5,1.6-3.8,2.3c-1.5,0.8-1.8,2.4-1.3,3.9c0.2-0.1,0.4-0.3,0.6-0.4c1.6-1,3.4-1.4,5.3-1.1
		c0.7,0.1,1.1,0.6,1.2,1.2c0.1,0.6-0.3,1.2-0.8,1.4c-0.3,0.1-0.7,0.1-1,0c-1.6-0.2-2.9,0.3-4.1,1.4c-0.1,0.1-0.3,0.3-0.2,0.4
		c0.4,0.8,0.7,1.8,1.4,2.3c1,0.9,2.3,1.4,3.4,2.2c0.1-0.2,0.2-0.4,0.3-0.6c0.7-1.4,1.5-2.7,2.6-3.8c1.2-1.2,2.7-2,4.4-1.8
		C48.3,18.5,49.2,17.9,50.2,17.2z"/>
	<path d="M11.5,24.1c-0.5-2-0.7-3.8-0.5-5.7c0-0.2,0-0.3,0.1-0.5c0.2-0.8,0.8-1.3,1.5-1.1c0.7,0.1,1.2,0.7,1.1,1.5
		c-0.2,2.1-0.1,4.2,0.7,6.1c0.5,1.2,1.2,2.3,1.8,3.5c0.1,0,0.2,0,0.3,0c0.6-2.1,1.3-4.2,1.9-6.4c0.1-0.3,0.1-0.5,0.2-0.8
		c0.2-0.8,0.8-1.2,1.6-1.1c0.7,0.1,1.2,0.7,1,1.5c-0.3,1.4-0.6,2.8-1.1,4.2c-0.6,1.8-1.3,3.6-2,5.4c-0.4,1.1-1.6,1.4-2.4,0.4
		c-0.9-1.1-1.8-2.4-2.7-3.5c-0.2-0.3-0.5-0.5-0.8-0.6c-1.6-0.5-3.1-0.8-4.7-1.3c-0.7-0.2-1.1-0.8-1-1.4c0.1-0.6,0.6-1.1,1.2-1.2
		c0.3,0,0.5,0.1,0.8,0.1C9.5,23.5,10.4,23.8,11.5,24.1z"/>
	<path d="M47.2,28.3c0.9-0.7,1.7-1.4,2.5-2.1c0.6-0.6,1.4-0.7,2-0.2c0.6,0.5,0.6,1.4-0.1,2c-1.1,1-2.2,1.8-3.4,2.8
		c-0.4,0.3-0.8,0.6-1.2,0.9c-0.8,0.5-1.8,0.2-2.1-0.7c-0.5-1.7-0.7-3.3-0.3-5c0.3-1.2,0.9-2.1,2.1-2.6c0.7-0.3,1.4,0,1.7,0.6
		c0.3,0.6,0.1,1.3-0.4,1.7C47.1,26.2,46.8,27,47.2,28.3z"/>
</g>
</svg>
